<svg xmlns="http://www.w3.org/2000/svg" style="display: none;">
  <!-- Moon -->
  <symbol id="icon-moon" viewBox="0 0 24 24">
    <path fill-rule="evenodd" clip-rule="evenodd" d="M20.3655 2.12433C20.0384 1.29189 18.8624 1.29189 18.5353 2.12433L18.1073 3.21354L17.0227 3.6429C16.1933 3.97121 16.1933 5.14713 17.0227 5.47544L18.1073 5.90481L18.5353 6.99401C18.8624 7.82645 20.0384 7.82646 20.3655 6.99402L20.7935 5.90481L21.8781 5.47544C22.7075 5.14714 22.7075 3.97121 21.8781 3.6429L20.7935 3.21354L20.3655 2.12433ZM19.4504 2.52989L19.8651 3.58533C19.9648 3.83891 20.165 4.04027 20.4188 4.14073L21.4759 4.55917L20.4188 4.97762C20.165 5.07808 19.9648 5.27943 19.8651 5.53301L19.4504 6.58846L19.0357 5.53301C18.936 5.27943 18.7358 5.07808 18.482 4.97762L17.4249 4.55917L18.482 4.14073C18.7358 4.04027 18.936 3.83891 19.0357 3.58533L19.4504 2.52989ZM16.4981 7.94681C16.171 7.11437 14.9951 7.11437 14.668 7.94681L14.5134 8.34008L14.1222 8.49497C13.2928 8.82328 13.2928 9.9992 14.1222 10.3275L14.5134 10.4824L14.668 10.8757C14.9951 11.7081 16.171 11.7081 16.4981 10.8757L16.6526 10.4824L17.0439 10.3275C17.8733 9.9992 17.8733 8.82328 17.0439 8.49497L16.6526 8.34008L16.4981 7.94681ZM15.583 8.35237L15.7243 8.71188C15.824 8.96545 16.0242 9.16681 16.278 9.26727L16.6417 9.41124L16.278 9.55521C16.0242 9.65567 15.824 9.85703 15.7243 10.1106L15.583 10.4701L15.4418 10.1106C15.3421 9.85703 15.1419 9.65567 14.8881 9.55521L14.5244 9.41124L14.8881 9.26727C15.1419 9.16681 15.3421 8.96545 15.4418 8.71188L15.583 8.35237Z" fill="#1C274C"/>
    <path fill-rule="evenodd" clip-rule="evenodd" d="M11.0174 2.80157C6.37072 3.29221 2.75 7.22328 2.75 12C2.75 17.1086 6.89137 21.25 12 21.25C16.7767 21.25 20.7078 17.6293 21.1984 12.9826C19.8717 14.6669 17.8126 15.75 15.5 15.75C11.4959 15.75 8.25 12.5041 8.25 8.5C8.25 6.18738 9.33315 4.1283 11.0174 2.80157ZM1.25 12C1.25 6.06294 6.06294 1.25 12 1.25C12.7166 1.25 13.0754 1.82126 13.1368 2.27627C13.196 2.71398 13.0342 3.27065 12.531 3.57467C10.8627 4.5828 9.75 6.41182 9.75 8.5C9.75 11.6756 12.3244 14.25 15.5 14.25C17.5882 14.25 19.4172 13.1373 20.4253 11.469C20.7293 10.9658 21.286 10.804 21.7237 10.8632C22.1787 10.9246 22.75 11.2834 22.75 12C22.75 17.9371 17.9371 22.75 12 22.75C6.06294 22.75 1.25 17.9371 1.25 12Z" fill="#1C274C"/>
  </symbol>

  <!-- Sun -->
  <symbol id="icon-sun" viewBox="0 0 24 24">
    <circle cx="12" cy="12" r="5" stroke="#1C274C" stroke-width="1.5"/>
    <path d="M12 2V4" stroke="#1C274C" stroke-width="1.5" stroke-linecap="round"/>
    <path d="M12 20V22" stroke="#1C274C" stroke-width="1.5" stroke-linecap="round"/>
    <path d="M4 12L2 12" stroke="#1C274C" stroke-width="1.5" stroke-linecap="round"/>
    <path d="M22 12L20 12" stroke="#1C274C" stroke-width="1.5" stroke-linecap="round"/>
    <path d="M19.7778 4.22266L17.5558 6.25424" stroke="#1C274C" stroke-width="1.5" stroke-linecap="round"/>
    <path d="M4.22217 4.22266L6.44418 6.25424" stroke="#1C274C" stroke-width="1.5" stroke-linecap="round"/>
    <path d="M6.44434 17.5557L4.22211 19.7779" stroke="#1C274C" stroke-width="1.5" stroke-linecap="round"/>
    <path d="M19.7778 19.7773L17.5558 17.5551" stroke="#1C274C" stroke-width="1.5" stroke-linecap="round"/>
  </symbol>

  <!-- Arrow Down -->
  <symbol id="icon-arrow-down" viewBox="0 0 24 24">
    <path d="M5.70711 9.71069C5.31658 10.1012 5.31658 10.7344 5.70711 11.1249L10.5993 16.0123C11.3805 16.7927 12.6463 16.7924 13.4271 16.0117L18.3174 11.1213C18.708 10.7308 18.708 10.0976 18.3174 9.70708C17.9269 9.31655 17.2937 9.31655 16.9032 9.70708L12.7176 13.8927C12.3271 14.2833 11.6939 14.2832 11.3034 13.8927L7.12132 9.71069C6.7308 9.32016 6.09763 9.32016 5.70711 9.71069Z" fill="currentColor"/>
  </symbol>

  <!-- Arrow Back -->
  <symbol id="icon-arrow-back" viewBox="0 0 24 24">
    <path d="M8 17L3 12M3 12L8 7M3 12H21" stroke="currentColor" stroke-width="2" stroke-linecap="round" stroke-linejoin="round"/>
  </symbol>

  <!-- Search -->
  <symbol id="icon-search" viewBox="0 0 25 25">
    <path fill-rule="evenodd" clip-rule="evenodd" d="M7.30524 15.7137C6.4404 14.8306 5.85381 13.7131 5.61824 12.4997C5.38072 11.2829 5.50269 10.0233 5.96924 8.87469C6.43181 7.73253 7.22153 6.75251 8.23924 6.05769C10.3041 4.64744 13.0224 4.64744 15.0872 6.05769C16.105 6.75251 16.8947 7.73253 17.3572 8.87469C17.8238 10.0233 17.9458 11.2829 17.7082 12.4997C17.4727 13.7131 16.8861 14.8306 16.0212 15.7137C14.8759 16.889 13.3044 17.5519 11.6632 17.5519C10.0221 17.5519 8.45059 16.889 7.30524 15.7137V15.7137Z" stroke="#000000" stroke-width="1.5" stroke-linecap="round" stroke-linejoin="round"/>
    <path d="M11.6702 7.20292C11.2583 7.24656 10.9598 7.61586 11.0034 8.02777C11.0471 8.43968 11.4164 8.73821 11.8283 8.69457L11.6702 7.20292ZM13.5216 9.69213C13.6831 10.0736 14.1232 10.2519 14.5047 10.0904C14.8861 9.92892 15.0644 9.4888 14.9029 9.10736L13.5216 9.69213ZM16.6421 15.0869C16.349 14.7943 15.8741 14.7947 15.5815 15.0879C15.2888 15.381 15.2893 15.8559 15.5824 16.1485L16.6421 15.0869ZM18.9704 19.5305C19.2636 19.8232 19.7384 19.8228 20.0311 19.5296C20.3237 19.2364 20.3233 18.7616 20.0301 18.4689L18.9704 19.5305ZM11.8283 8.69457C12.5508 8.61801 13.2384 9.02306 13.5216 9.69213L14.9029 9.10736C14.3622 7.83005 13.0496 7.05676 11.6702 7.20292L11.8283 8.69457ZM15.5824 16.1485L18.9704 19.5305L20.0301 18.4689L16.6421 15.0869L15.5824 16.1485Z" fill="#000000"/>
  </symbol>
</svg>
